<svg width="32" height="32" xmlns="http://www.w3.org/2000/svg">
 <g>
  <title>background</title>
  <rect x="-1" y="-1" width="3.116924" height="3.116924" id="canvas_background" fill="none"/>
 </g>

 <g>
  <title>Layer 1</title>
  <path d="m31,16l-2,0l0,-2c0,-0.6 -0.4,-1 -1,-1l-2,0l0,-2c0,-0.6 -0.4,-1 -1,-1l-2,0l0,-2l2,0c0.6,0 1,-0.4 1,-1l0,-3c0,-0.6 -0.4,-1 -1,-1l-3,0c-0.6,0 -1,0.4 -1,1l0,2l-2,0c-0.6,0 -1,0.4 -1,1l0,3l-4,0l0,-3c0,-0.6 -0.4,-1 -1,-1l-2,0l0,-2c0,-0.6 -0.4,-1 -1,-1l-3,0c-0.6,0 -1,0.4 -1,1l0,3c0,0.6 0.4,1 1,1l2,0l0,2l-2,0c-0.6,0 -1,0.4 -1,1l0,2l-2,0c-0.6,0 -1,0.4 -1,1l0,2l-2,0c-0.6,0 -1,0.4 -1,1l0,9c0,0.6 0.4,1 1,1l3,0c0.6,0 1,-0.4 1,-1l0,-5l1,0l0,5c0,0.6 0.4,1 1,1l2,0l0,2c0,0.6 0.4,1 1,1l4,0c0.6,0 1,-0.4 1,-1l0,-3c0,-0.6 -0.4,-1 -1,-1l-3,0l0,-1l10,0l0,1l-3,0c-0.6,0 -1,0.4 -1,1l0,3c0,0.6 0.4,1 1,1l4,0c0.6,0 1,-0.4 1,-1l0,-2l2,0c0.6,0 1,-0.4 1,-1l0,-5l1,0l0,5c0,0.6 0.4,1 1,1l3,0c0.6,0 1,-0.4 1,-1l0,-9c0,-0.6 -0.4,-1 -1,-1zm-17,3c0,0.6 -0.4,1 -1,1l-3,0c-0.6,0 -1,-0.4 -1,-1l0,-3c0,-0.6 0.4,-1 1,-1l3,0c0.6,0 1,0.4 1,1l0,3zm9,0c0,0.6 -0.4,1 -1,1l-3,0c-0.6,0 -1,-0.4 -1,-1l0,-3c0,-0.6 0.4,-1 1,-1l3,0c0.6,0 1,0.4 1,1l0,3z" id="svg_1" fill="#3eb595"/>
 </g>
</svg>