<?xml version="1.0" ?><svg data-name="Layer 1" id="Layer_1" viewBox="0 0 64 64" xmlns="http://www.w3.org/2000/svg"><defs>
<style>.cls-1{fill:#4f71be;}.cls-2{fill:#071b5c;}.cls-3{fill:#f95555;}.cls-4{fill:#d81d1d;}.cls-5{fill:#77f969;}.cls-6{fill:#03dd03;}.cls-7{fill:#bbcbf0;}.cls-8{fill:#ffce62;}.cls-9{fill:#f4a519;}</style>
</defs><title/><path class="cls-1" d="M28,4H60a0,0,0,0,1,0,0v8a0,0,0,0,1,0,0H26a0,0,0,0,1,0,0V6A2,2,0,0,1,28,4Z"/><path class="cls-2" d="M60,12V4H28a1.994,1.994,0,0,0-1.723,1L26,6h8.87c2.639,0,2.451-1.2,5.09-1.2S42.788,6,45.429,6s2.335-1.4,4.977-1.4,1.7.649,4.259,1.326c.676.178,1.648-.177,1.647.522S55,7.1,55,7.8s2,.7,2,1.4-.969.452-.969,1.153S57,11.3,57,12Z"/><circle class="cls-3" cx="14" cy="50" r="10"/><path class="cls-4" d="M14.376,59.981A9.994,9.994,0,1,0,9.623,41.019l-.307.144a18.609,18.609,0,0,1,4.719,1.79c1.106.556,3.284-.255,4.108.652s-.193,2.992.255,4.151C18.83,48.874,21,49.729,21,51c0,.836-2.073,1.405-2.267,2.18-.2.8,1.354,2.28.973,2.992s-2.483.248-3.029.85A27.153,27.153,0,0,1,14,60Z"/><circle class="cls-5" cx="50" cy="50" r="10"/><path class="cls-6" d="M50.376,59.981a9.994,9.994,0,1,0-4.753-18.962l-.307.144a18.609,18.609,0,0,1,4.719,1.79c1.106.556,3.284-.255,4.108.652s-.193,2.992.255,4.151C54.83,48.874,57,49.729,57,51c0,.836-2.073,1.405-2.267,2.18-.2.8,1.354,2.28.973,2.992s-2.483.248-3.029.85A27.153,27.153,0,0,1,50,60Z"/><rect class="cls-7" height="4" width="8" x="28" y="12"/><circle class="cls-8" cx="32" cy="50" r="10"/><path class="cls-5" d="M24,32h0a8,8,0,0,1,8,8v0a0,0,0,0,1,0,0h0a8,8,0,0,1-8-8v0A0,0,0,0,1,24,32Z"/><path class="cls-5" d="M42,32h0a8,8,0,0,1,8,8v0a0,0,0,0,1,0,0h0a8,8,0,0,1-8-8v0A0,0,0,0,1,42,32Z"/><path class="cls-5" d="M6,32H6a8,8,0,0,1,8,8v0a0,0,0,0,1,0,0h0a8,8,0,0,1-8-8v0A0,0,0,0,1,6,32Z"/><path d="M60,3H28a3,3,0,0,0-3,3v6a1,1,0,0,0,1,1h1v3a1,1,0,0,0,1,1h8a1,1,0,0,0,1-1V13H60a1,1,0,0,0,1-1V4A1,1,0,0,0,60,3ZM35,15H29V13h6Zm24-4H27V6a1,1,0,0,1,1-1H59Z"/><rect height="4" width="2" x="31" y="18"/><rect height="4" width="2" x="31" y="24"/><rect height="4" width="2" x="35" y="18"/><rect height="4" width="2" x="37" y="24"/><rect height="4" width="2" x="27" y="18"/><rect height="4" width="2" x="25" y="24"/><path class="cls-9" d="M32.376,59.981a9.994,9.994,0,1,0-4.753-18.962l-.307.144a18.609,18.609,0,0,1,4.719,1.79c1.106.556,3.284-.255,4.108.652s-.193,2.992.255,4.151C36.83,48.874,39,49.729,39,51c0,.836-2.073,1.405-2.267,2.18-.2.8,1.354,2.28.973,2.992s-2.483.248-3.029.85A27.153,27.153,0,0,1,32,60Z"/><path d="M52.193,39.221l2.514-2.514-1.414-1.414-2.562,2.562A9.007,9.007,0,0,0,42,31a1,1,0,0,0-1,1,9.006,9.006,0,0,0,4.7,7.9,11.1,11.1,0,0,0-4.687,3.807,11.017,11.017,0,0,0-6.833-4.472l2.53-2.53-1.414-1.414-2.562,2.562A9.007,9.007,0,0,0,24,31a1,1,0,0,0-1,1,9.006,9.006,0,0,0,4.692,7.9,11.068,11.068,0,0,0-4.7,3.81,11.017,11.017,0,0,0-6.814-4.471l2.531-2.531-1.414-1.414-2.562,2.562A9.007,9.007,0,0,0,6,31a1,1,0,0,0-1,1,9,9,0,0,0,4.675,7.889,10.993,10.993,0,1,0,13.315,16.4,10.974,10.974,0,0,0,18.02,0,10.988,10.988,0,1,0,11.183-17.07ZM7.084,33.084a7.015,7.015,0,0,1,5.832,5.832A7.015,7.015,0,0,1,7.084,33.084Zm14.8,21.231a9,9,0,1,1,0-8.63,10.973,10.973,0,0,0,0,8.63Zm3.2-21.231a7.015,7.015,0,0,1,5.832,5.832A7.015,7.015,0,0,1,25.084,33.084ZM32,59a9,9,0,1,1,9-9A9.01,9.01,0,0,1,32,59ZM43.084,33.084a7.015,7.015,0,0,1,5.832,5.832A7.015,7.015,0,0,1,43.084,33.084ZM50,59a8.993,8.993,0,0,1-7.884-4.685,10.973,10.973,0,0,0,0-8.63A8.995,8.995,0,1,1,50,59Z"/></svg>