<svg width="64" height="64" xmlns="http://www.w3.org/2000/svg">
 <g>
  <title>background</title>
  <rect x="-1" y="-1" width="10.935414" height="10.935414" id="canvas_background" fill="none"/>
 </g>

 <g>
  <title>Layer 1</title>
  <rect class="st2" height="46.3" width="13.2" x="5.5" y="16.6" id="svg_3" fill="#4f71be"/>
  <rect class="st1" height="61.8" width="15.4" x="18.8" y="1.1" id="svg_5" fill="#1154ed"/>
  <polygon class="st2" points="58.5,59.8 45.6,62.9 34.2,18.1 47.1,15    " id="svg_7" fill="#4f71be"/>
  <path class="st3" d="m15.7,22.1l-7.099999,0c-0.6,0 -1.1,0.5 -1.1,1.1c0,0.599998 0.5,1.099998 1.1,1.099998l7.099999,0c0.599999,0 1.099999,-0.5 1.099999,-1.099998c0,-0.6 -0.5,-1.1 -1.099999,-1.1z" id="svg_10" fill="#0f0f00"/>
  <path class="st3" d="m23,8.8l7,0c0.6,0 1.1,-0.5 1.1,-1.1s-0.5,-1.1 -1.1,-1.1l-7,0c-0.6,0 -1.1,0.5 -1.1,1.1s0.4,1.1 1.1,1.1z" id="svg_12" fill="#0f0f00"/>
  <path class="st3" d="m23,57.400002l7,0c0.6,0 1.1,-0.5 1.1,-1.100002c0,-0.599998 -0.5,-1.099998 -1.1,-1.099998l-7,0c-0.6,0 -1.1,0.5 -1.1,1.099998c-0.1,0.600002 0.4,1.100002 1.1,1.100002z" id="svg_14" fill="#0f0f00"/>
  <path class="st3" d="m15.7,55.200001l-7.099999,0c-0.6,0 -1.1,0.5 -1.1,1.099998c0,0.600002 0.5,1.100002 1.1,1.100002l7.099999,0c0.599999,0 1.099999,-0.5 1.099999,-1.100002c0,-0.599998 -0.5,-1.099998 -1.099999,-1.099998z" id="svg_16" fill="#0f0f00"/>
  <path class="st3" d="m59.599998,59.5l-11.5,-44.8c-0.099998,-0.599999 -0.699997,-0.9 -1.299999,-0.8l-11.5,2.800001l0,-15.600001c0,-0.6 -0.5,-1.1 -1.099998,-1.1l-15.400002,0c-0.599998,0 -1.099998,0.5 -1.099998,1.1l0,14.3l-12.200001,0c-0.6,0 -1.1,0.5 -1.1,1.1l0,46.299999c0,0.600002 0.5,1.100002 1.1,1.100002l13.200001,0l15.399998,0c0.600002,0 1.100002,-0.5 1.100002,-1.100002l0,-36l9.200001,36.299999c0.099998,0.5 0.599998,0.800003 1.099998,0.800003c0.099998,0 0.200001,0 0.299999,0l12.900002,-3.100002c0.299999,-0.099998 0.5,-0.299999 0.700001,-0.5c0.199997,-0.200001 0.199997,-0.5 0.199997,-0.799999zm-52.999999,-41.799999l11,0l0,44.099998l-11,0l0,-44.099998zm26.499999,44.099998l-13.199999,0l0,-45.199999l0,-14.4l13.199999,0l0,59.599999zm13.300003,-0.200001l-10.800003,-42.699999l10.700001,-2.6l10.799999,42.700001l-10.699997,2.599998z" id="svg_18" fill="#0f0f00"/>
  <path class="st3" d="m45.299999,21l-6.899998,1.700001c-0.600002,0.099998 -1,0.699999 -0.800003,1.299999c0.100002,0.5 0.600002,0.799999 1.100002,0.799999c0.099998,0 0.200001,0 0.299999,0l6.900002,-1.699999c0.599998,-0.1 1,-0.700001 0.799999,-1.300001s-0.799999,-1 -1.400002,-0.799999z" id="svg_20" fill="#0f0f00"/>
  <path class="st3" d="m45.799999,56c0.100002,0.5 0.600002,0.799999 1.100002,0.799999c0.099998,0 0.199997,0 0.299999,0l6.899998,-1.700001c0.600002,-0.099998 1,-0.699997 0.800003,-1.299999c-0.100002,-0.599998 -0.700001,-0.899998 -1.300003,-0.799999l-6.899998,1.700001c-0.700001,0.200001 -1.100002,0.799999 -0.900002,1.299999z" id="svg_22" fill="#0f0f00"/>
 </g>
</svg>