<svg width="32" height="32" xmlns="http://www.w3.org/2000/svg">

 <g>
  <title>background</title>
  <rect fill="none" id="canvas_background" height="402" width="582" y="-1" x="-1"/>
 </g>
 <g>
  <title fill="#4f71be">Layer 1</title>
  <path fill="#4f71be" id="svg_2" d="m26.857,18l-2,0c0,-6 -3.973,-9.857 -8.857,-9.857s-8.857,3.857 -8.857,9.857l-2,0c0,-7 4.871,-11.857 10.857,-11.857s10.857,4.857 10.857,11.857z"/>
  <path fill="#4f71be" id="svg_4" d="m8,19c0,-0.552999 -0.448,-1 -1,-1l-2,0c-0.552,0 -1,0.447001 -1,1l0,6c0,0.552999 0.448,1 1,1l2,0c0.552,0 1,-0.447001 1,-1l0,-6z"/>
  <path fill="#4f71be" id="svg_5" d="m7,27l-2,0c-1.103,0 -2,-0.896999 -2,-2l0,-6c0,-1.103001 0.897,-2 2,-2l2,0c1.103,0 2,0.896999 2,2l0,6c0,1.103001 -0.897,2 -2,2zm-2,-8l0,6l2.001,0l-0.001,-6l-2,0z"/>
  <path fill="#4f71be" id="svg_7" d="m28,19c0,-0.552999 -0.448,-1 -1,-1l-2,0c-0.552,0 -1,0.447001 -1,1l0,6c0,0.552999 0.448,1 1,1l2,0c0.552,0 1,-0.447001 1,-1l0,-6z"/>
  <path fill="#4f71be" id="svg_8" d="m27,27l-2,0c-1.103001,0 -2,-0.896999 -2,-2l0,-6c0,-1.103001 0.896999,-2 2,-2l2,0c1.103001,0 2,0.896999 2,2l0,6c0,1.103001 -0.896999,2 -2,2zm-2,-8l0,6l2.000999,0l-0.000999,-6l-2,0z"/>
 </g>
</svg>