<svg width="100" height="100" xmlns="http://www.w3.org/2000/svg">

 <g>
  <title>background</title>
  <rect fill="none" id="canvas_background" height="402" width="582" y="-1" x="-1"/>
 </g>
 <g>
  <title>Layer 1</title>
  <path fill="#3eb595" id="svg_2" d="m53,69.5l-6,0c-1.381001,0 -2.5,1.119003 -2.5,2.5s1.118999,2.5 2.5,2.5l6,0c1.381001,0 2.5,-1.119003 2.5,-2.5s-1.118999,-2.5 -2.5,-2.5z"/>
  <path fill="#3eb595" id="svg_3" d="m92.5,61c0,-9.749001 -4.836998,-16.095001 -13.788002,-18.456001c2.326004,-2.646 3.788002,-6.389 3.788002,-10.543999c0,-7.995001 -5.383003,-14.5 -12,-14.5c-0.085999,0 -0.167,0.017 -0.25,0.025c-0.083,-0.007999 -0.164001,-0.025 -0.25,-0.025c-0.405998,0 -0.783997,0.106001 -1.124001,0.278c-4.014999,-6.18 -10.973999,-10.278 -18.875999,-10.278s-14.861,4.099 -18.875999,10.278c-0.339001,-0.171999 -0.718,-0.278 -1.124001,-0.278c-0.086,0 -0.167,0.017 -0.25,0.025c-0.083,-0.007999 -0.164,-0.025 -0.25,-0.025c-6.617001,0 -12,6.504999 -12,14.5c0,4.153999 1.461,7.895 3.785,10.541c-8.944,2.359001 -13.785,8.706001 -13.785,18.459c0,11.223 7.705,17.698997 21.771,18.427002c-1.719,5.733002 -1.771,10.461998 -1.771,10.572998c0,1.380997 1.118999,2.5 2.5,2.5l40,0c0.008003,0 0.014999,0 0.019997,0c1.381004,0 2.5,-1.119003 2.5,-2.5c0,-0.132004 -0.009995,-0.262001 -0.028999,-0.389c-0.046997,-1.250999 -0.312996,-5.362 -1.759995,-10.183998c14.064995,-0.729004 21.768997,-7.205002 21.768997,-18.427002zm-15,-29c0,4.294998 -2.112999,7.928001 -5,9.099998l0,-18.199999c2.887001,1.171 5,4.805 5,9.1zm-27.5,-19.5c9.648998,0 17.5,7.851 17.5,17.5l0,7.5l-12.5,0c-1.381001,0 -2.5,1.118999 -2.5,2.5s1.118999,2.5 2.5,2.5l3.5,0c0,1.653999 1.346001,3 3,3s3,-1.346001 3,-3l3,0l0,9.5c0,7.686001 -1.473999,13.157997 -2.554001,16.139999c-3.236,-3.964996 -7.849998,-7.271 -14.454998,-8.591999c-0.163002,-0.032001 -0.327,-0.048 -0.491001,-0.048s-0.327999,0.015999 -0.490002,0.048c-6.605,1.320999 -11.218998,4.627003 -14.454998,8.591999c-1.082001,-2.986 -2.555,-8.456001 -2.555,-16.139999l0,-9.5l3,0c0,1.653999 1.346001,3 3,3s3,-1.346001 3,-3l3,0l0,14.5c0,1.381001 1.118999,2.5 2.5,2.5l3,0l3,0c1.381001,0 2.5,-1.118999 2.5,-2.5s-1.118999,-2.5 -2.5,-2.5l-3.5,0l0,-14.5c0,-1.381001 -1.118999,-2.5 -2.5,-2.5l-14.5,0l0,-7.5c0,-9.65 7.851002,-17.5 17.5,-17.5zm-22.5,10.4l0,18.199999c-2.886999,-1.170998 -5,-4.805 -5,-9.099998s2.113001,-7.929001 5,-9.1zm-15,38.1c0,-9.042 4.922001,-13.773998 15,-14.423l0,5.423c0,13.016998 3.844999,20.362 4.284,21.157997c-0.228001,0.440002 -0.444,0.881004 -0.648001,1.322006c-12.355999,-0.204002 -18.636,-4.728004 -18.636,-13.480003zm20.174999,26.5c0.638,-5.796997 3.600002,-19.886002 17.325001,-22.945c13.876999,3.085999 16.750999,17.128998 17.346001,22.945l-34.671001,0zm36.190998,-13.019997c-0.203995,-0.442001 -0.420998,-0.883003 -0.648994,-1.324005c0.443001,-0.803001 4.282997,-8.146996 4.282997,-21.155998l0,-5.423c10.086998,0.656002 15,5.387001 15,14.423c0,8.751999 -6.279999,13.276001 -18.634003,13.480003z"/>
 </g>
</svg>