<svg width="52" height="52" xmlns="http://www.w3.org/2000/svg">

 <g>
  <title>background</title>
  <rect fill="none" id="canvas_background" height="402" width="582" y="-1" x="-1"/>
 </g>
 <g>
  <title fill="#3eb595" stroke="#3eb595">Layer 1</title>
  <path stroke="#3eb595" fill="#3eb595" id="svg_3" d="m5.71534,3.01966c7.20838,-0.00263 14.416749,-0.00526 21.625129,-0.00789c3.604181,-0.00131 7.20837,-0.00483 10.812561,-0.00394c2.688351,0.00066 9.08474,-0.97067 10.840168,1.75468c1.083931,1.68282 0.069832,7.79659 0.088421,9.87246c0.032421,3.6199 0.064842,7.239799 0.097271,10.859711s0.064838,7.239801 0.09726,10.859701c0.014729,1.645409 0.029469,3.290817 0.044209,4.936237c0.026894,3.002281 0.446613,3.806419 -1.760757,6.0159c-2.089291,2.09127 -2.952492,1.744781 -5.636642,1.714661c-1.940048,-0.02177 -3.8801,-0.043541 -5.820148,-0.065308c-3.233421,-0.036282 -6.466841,-0.072563 -9.70026,-0.108852c-3.556759,-0.039909 -7.11352,-0.079819 -10.67028,-0.119728c-1.616711,-0.018143 -3.23342,-0.036282 -4.85013,-0.054432c-0.91562,-0.010269 -5.05933,0.406532 -5.82015,-0.0653c-3.29966,-2.04636 -2.59316,-7.594639 -2.61158,-10.85812c-0.02204,-3.905029 0.00372,-7.810959 0.00641,-11.716059c0.00239,-3.46409 -2.07518,-23.146621 3.7377,-22.823121c1.44676,0.08052 1.44221,-2.16974 0,-2.25c-4.20124,-0.23381 -5.77353,2.73523 -5.96156,6.55907c-0.399,8.11376 -0.02464,16.34105 -0.03024,24.465529c-0.00256,3.71526 -0.07333,7.441071 0.09771,11.153679c0.08822,1.915073 -0.16337,5.058662 1.33386,6.608852c1.14662,1.187168 2.89865,1.071159 4.39772,1.121048c4.19774,0.139709 8.4104,0.094379 12.610339,0.141502c8.083551,0.09071 16.167091,0.181419 24.250641,0.272129c4.49551,0.050442 7.877602,0.040421 8.593529,-5.082008c1.060062,-7.584671 -0.015549,-16.006842 -0.08416,-23.667122c-0.03537,-3.94899 -0.07074,-7.89797 -0.10611,-11.84696c-0.020561,-2.29636 0.72094,-5.84188 -0.493,-7.93155c-0.81303,-1.39955 -2.130798,-1.51085 -3.644459,-1.69738c-4.26643,-0.52575 -8.648701,-0.29935 -12.937599,-0.29779c-9.501951,0.00347 -19.003901,0.00694 -28.505851,0.0104c-1.44774,0.00053 -1.45018,2.25053 0,2.25l0,0z" class="st0"/>
  <path stroke="#3eb595" fill="#3eb595" id="svg_5" d="m1.4656,15.26539c15.958329,0 31.916659,0 47.874999,0c1.447762,0 1.450161,-2.25 0,-2.25c-15.95834,0 -31.91667,0 -47.874999,0c-1.44777,0 -1.45017,2.25 0,2.25l0,0z" class="st0"/>
  <path stroke="#3eb595" fill="#3eb595" id="svg_7" d="m33.71563,28.459539c1.099201,0.708061 2.198399,1.416121 3.2976,2.12418c0.9828,0.633091 3.072762,1.545141 3.396832,2.7418c0.172329,-0.423489 0.344669,-0.846989 0.516998,-1.27047c-1.312199,0.87114 -2.712849,1.676529 -3.937279,2.669708c-1.394421,1.131073 -2.43074,2.093712 -4.23391,2.555801c-1.40168,0.3592 -0.80759,2.529861 0.598141,2.169621c1.534348,-0.3932 2.888218,-1.06739 4.092388,-2.105701c1.454109,-1.25383 3.012661,-2.282009 4.61628,-3.34663c0.419891,-0.278748 0.652752,-0.769218 0.51701,-1.27047c-0.398468,-1.471359 -1.42585,-2.136999 -2.65023,-2.939459c-1.68388,-1.103609 -3.385658,-2.18091 -5.078209,-3.271191c-1.220879,-0.78644 -2.350239,1.1604 -1.13562,1.94281l0,0z" class="st0"/>
  <path stroke="#3eb595" fill="#3eb595" id="svg_9" d="m31.227369,23.136271c-4.15309,5.14897 -6.896399,11.43664 -10.001579,17.24349c-0.682631,1.276569 1.259001,2.414368 1.94281,1.13562c2.992161,-5.595512 5.64596,-11.824242 9.649759,-16.78812c0.90094,-1.116982 -0.681408,-2.71867 -1.59099,-1.59099l0,0z" class="st0"/>
  <path stroke="#3eb595" fill="#3eb595" id="svg_11" d="m17.556589,26.66333c-0.998709,1.715981 -1.979859,3.00717 -3.607949,4.172331c-0.76955,0.550739 -1.73493,1.152519 -1.92099,2.1635c-0.16526,0.89801 0.29119,1.429058 0.95838,1.919788c1.58596,1.166512 3.313821,2.08382 4.86218,3.329201c1.117981,0.89922 2.71982,-0.683048 1.59099,-1.590988c-0.968019,-0.778603 -1.95381,-1.532391 -2.983349,-2.2285c-0.468161,-0.316551 -1.011981,-0.572861 -1.44711,-0.926842c-0.19785,-0.20467 -0.43015,-0.246731 -0.69688,-0.12619c0.32671,-0.28437 0.67279,-0.54158 1.038239,-0.771618c1.845461,-1.313662 3.010841,-2.848991 4.1493,-4.805061c0.729811,-1.253941 -1.213968,-2.38789 -1.94281,-1.13562l0,0z" class="st0"/>
  <path stroke="#3eb595" fill="#3eb595" id="svg_13" d="m5.79157,8.81497c-0.01442,-0.04406 -0.02883,-0.08812 -0.04325,-0.13218c0.09644,-0.36485 0.19288,-0.72971 0.28932,-1.09456c0.1672,-0.05036 0.33439,-0.10072 0.50158,-0.15108c0.16547,0.09644 0.33095,0.19288 0.49643,0.28932c0.02159,0.05981 0.04317,0.11962 0.06476,0.17943c-0.19396,-0.57555 -0.7744,-0.95323 -1.38388,-0.78574c-0.56162,0.15434 -0.98062,0.80562 -0.78574,1.38388c0.39245,1.16452 1.80436,1.623631 2.69784,0.67518c0.26447,-0.28074 0.41977,-0.71261 0.28932,-1.09457c-0.11552,-0.33826 -0.26203,-0.62495 -0.53539,-0.86067c-0.45987,-0.39655 -1.13906,-0.45194 -1.59099,0c-0.40568,0.40568 -0.46213,1.19249 0,1.59099l0,0z" class="st0"/>
  <path stroke="#3eb595" fill="#3eb595" id="svg_15" d="m10.27837,8.07799c0.02126,0.44573 0.1603,0.76949 0.45512,1.1083c0.37399,0.42979 1.22083,0.44439 1.59099,0c0.11131,-0.13363 0.22348,-0.26551 0.30395,-0.42003c0.20725,-0.39797 0.22347,-1.05312 -0.17591,-1.3633c-0.74188,-0.57619 -1.48348,-0.57617 -2.22529,0.00002c-0.48026,0.37303 -0.39185,1.19913 0,1.59099c0.47405,0.474051 1.10947,0.37401 1.59099,0c0.03073,-0.02387 0.06145,-0.04774 0.09218,-0.0716c-0.16547,0.09644 -0.330951,0.19288 -0.49643,0.28932c-0.04939,-0.02279 -0.09879,-0.022799 -0.1482,-0.00001c-0.16547,-0.09644 -0.33095,-0.192881 -0.49642,-0.28932c0.03072,0.02386 0.06145,0.047729 0.09218,0.071589c-0.05864,-0.45443 -0.11728,-0.90887 -0.17591,-1.3633c0.015949,-0.01179 0.03191,-0.02357 0.04787,-0.03535c0.53033,0 1.06066,0 1.59099,0c-0.02551,-0.02932 -0.05103,-0.05864 -0.07654,-0.08797c0.09644,0.16548 0.19288,0.33096 0.28932,0.49643c-0.00297,0.024739 -0.00593,0.04949 -0.00889,0.074229c-0.02896,-0.607049 -0.49633,-1.125 -1.125,-1.125c-0.58686,0 -1.15409,0.51515 -1.125,1.125l0,0z" class="st0"/>
  <path stroke="#3eb595" fill="#3eb595" id="svg_17" d="m15.50542,7.63822c-0.02497,0.0394 -0.04994,0.07881 -0.07492,0.11821c0.13454,-0.13453 0.26907,-0.26907 0.4036,-0.4036c-0.04138,0.02154 -0.08276,0.04307 -0.12414,0.06461c0.378539,0 0.757079,0 1.135619,0c-0.083229,-0.06198 -0.16646,-0.12396 -0.249689,-0.18593c0.07589,0.58896 0.151791,1.17793 0.22768,1.7669c0.039749,-0.0421 0.0795,-0.08419 0.119249,-0.12629c-0.64016,-0.26516 -1.28033,-0.53033 -1.920489,-0.79549c0.11697,1.42535 1.60514,1.828441 2.61432,0.92905c0.5952,-0.53044 0.31127,-1.36064 -0.22768,-1.7669c-0.03676,-0.02771 -0.073521,-0.05542 -0.110279,-0.08313c0.134529,0.13453 0.26906,0.26906 0.403589,0.40359c-0.00738,0.0103 -0.014771,0.0206 -0.02215,0.0309c-0.22657,-0.56332 -0.750389,-0.95983 -1.38389,-0.78574c-0.53488,0.14699 -1.01379,0.81687 -0.78574,1.38388c0.1776,0.44157 0.377831,0.70308 0.76285,0.99331c-0.075899,-0.58897 -0.151791,-1.17794 -0.22769,-1.7669c-0.01157,0.00001 -0.02314,0.00001 -0.03471,0.00002c0.18927,-0.0512 0.37854,-0.1024 0.56781,-0.15359c0.00997,0.00651 0.019949,0.01303 0.029921,0.01955c0.16548,0.09644 0.33095,0.19288 0.496429,0.28932c0.007669,0.01779 0.01535,0.03558 0.02302,0.05336c0.051201,0.18927 0.1024,0.37854 0.153601,0.56781c-0.003141,-0.03818 -0.006271,-0.07635 -0.009401,-0.114531c-0.075239,-0.91687 -1.2048,-1.5534 -1.9205,-0.7955c-0.039749,0.0421 -0.079499,0.08419 -0.119249,0.12629c-0.540401,0.57226 -0.35752,1.33112 0.22769,1.76689c0.08323,0.06198 0.16646,0.12396 0.24969,0.18593c0.324059,0.24131 0.8051,0.172 1.135619,0c0.272261,-0.14168 0.440081,-0.32989 0.602652,-0.5864c0.777399,-1.22664 -1.168921,-2.35672 -1.942811,-1.13562l0,0z" class="st0"/>
 </g>
</svg>